<mxfile host="65bd71144e">
    <diagram id="MA6wr8OQGqOKLciC1b4q" name="Page-1">
        <mxGraphModel dx="1047" dy="864" grid="1" gridSize="10" guides="1" tooltips="1" connect="1" arrows="1" fold="1" page="1" pageScale="1" pageWidth="850" pageHeight="1100" math="0" shadow="0">
            <root>
                <mxCell id="0"/>
                <mxCell id="1" parent="0"/>
                <mxCell id="2" value="&lt;b&gt;&lt;font style=&quot;font-size: 18px;&quot;&gt;Online Shoe Store&lt;/font&gt;&lt;/b&gt;" style="shape=ellipse;html=1;dashed=0;whitespace=wrap;aspect=fixed;perimeter=ellipsePerimeter;strokeWidth=3;" parent="1" vertex="1">
                    <mxGeometry x="322.5" y="430" width="160" height="160" as="geometry"/>
                </mxCell>
                <mxCell id="3" value="&lt;b&gt;Shopping Cart &lt;br&gt;Management&lt;/b&gt;" style="html=1;dashed=0;whitespace=wrap;strokeWidth=3;fontSize=18;" parent="1" vertex="1">
                    <mxGeometry x="322.5" y="230" width="160" height="110" as="geometry"/>
                </mxCell>
                <mxCell id="5" value="&lt;b&gt;Product&lt;br&gt;Management&lt;/b&gt;" style="html=1;dashed=0;whitespace=wrap;strokeWidth=3;fontSize=18;" parent="1" vertex="1">
                    <mxGeometry x="640" y="350" width="160" height="110" as="geometry"/>
                </mxCell>
                <mxCell id="6" value="&lt;b&gt;System User&lt;br&gt;Management&lt;/b&gt;" style="html=1;dashed=0;whitespace=wrap;strokeWidth=3;fontSize=18;" parent="1" vertex="1">
                    <mxGeometry x="640" y="590" width="160" height="110" as="geometry"/>
                </mxCell>
                <mxCell id="7" value="&lt;b&gt;Login&lt;br&gt;Management&lt;/b&gt;" style="html=1;dashed=0;whitespace=wrap;strokeWidth=3;fontSize=18;" parent="1" vertex="1">
                    <mxGeometry x="322.5" y="770" width="160" height="110" as="geometry"/>
                </mxCell>
                <mxCell id="8" value="&lt;b&gt;Order&lt;br&gt;Management&lt;/b&gt;" style="html=1;dashed=0;whitespace=wrap;strokeWidth=3;fontSize=18;" parent="1" vertex="1">
                    <mxGeometry x="40" y="350" width="160" height="110" as="geometry"/>
                </mxCell>
                <mxCell id="9" value="&lt;b&gt;Prodduct&lt;br&gt;Management&lt;/b&gt;" style="html=1;dashed=0;whitespace=wrap;strokeWidth=3;fontSize=18;" parent="1" vertex="1">
                    <mxGeometry x="40" y="590" width="160" height="110" as="geometry"/>
                </mxCell>
                <mxCell id="12" value="" style="endArrow=classic;startArrow=classic;html=1;fontSize=18;exitX=0.5;exitY=0;exitDx=0;exitDy=0;strokeWidth=3;" parent="1" source="2" target="3" edge="1">
                    <mxGeometry width="50" height="50" relative="1" as="geometry">
                        <mxPoint x="430" y="420" as="sourcePoint"/>
                        <mxPoint x="480" y="370" as="targetPoint"/>
                    </mxGeometry>
                </mxCell>
                <mxCell id="13" value="" style="endArrow=classic;startArrow=classic;html=1;fontSize=18;exitX=0;exitY=0;exitDx=0;exitDy=0;entryX=1;entryY=0.25;entryDx=0;entryDy=0;strokeWidth=3;" parent="1" source="2" target="8" edge="1">
                    <mxGeometry width="50" height="50" relative="1" as="geometry">
                        <mxPoint x="412.5" y="440" as="sourcePoint"/>
                        <mxPoint x="412.5" y="350" as="targetPoint"/>
                    </mxGeometry>
                </mxCell>
                <mxCell id="14" value="" style="endArrow=classic;startArrow=classic;html=1;fontSize=18;entryX=0.5;entryY=1;entryDx=0;entryDy=0;strokeWidth=3;" parent="1" source="7" target="2" edge="1">
                    <mxGeometry width="50" height="50" relative="1" as="geometry">
                        <mxPoint x="422.5" y="450" as="sourcePoint"/>
                        <mxPoint x="422.5" y="360" as="targetPoint"/>
                    </mxGeometry>
                </mxCell>
                <mxCell id="15" value="" style="endArrow=classic;startArrow=classic;html=1;fontSize=18;exitX=1;exitY=0.75;exitDx=0;exitDy=0;strokeWidth=3;" parent="1" source="9" target="2" edge="1">
                    <mxGeometry width="50" height="50" relative="1" as="geometry">
                        <mxPoint x="432.5" y="460" as="sourcePoint"/>
                        <mxPoint x="432.5" y="370" as="targetPoint"/>
                    </mxGeometry>
                </mxCell>
                <mxCell id="16" value="" style="endArrow=classic;startArrow=classic;html=1;fontSize=18;entryX=0;entryY=0.5;entryDx=0;entryDy=0;strokeWidth=3;" parent="1" source="2" target="6" edge="1">
                    <mxGeometry width="50" height="50" relative="1" as="geometry">
                        <mxPoint x="442.5" y="470" as="sourcePoint"/>
                        <mxPoint x="442.5" y="380" as="targetPoint"/>
                    </mxGeometry>
                </mxCell>
                <mxCell id="17" value="" style="endArrow=classic;startArrow=classic;html=1;fontSize=18;exitX=1;exitY=0.5;exitDx=0;exitDy=0;entryX=0;entryY=0.5;entryDx=0;entryDy=0;strokeWidth=3;" parent="1" source="2" target="5" edge="1">
                    <mxGeometry width="50" height="50" relative="1" as="geometry">
                        <mxPoint x="452.5" y="480" as="sourcePoint"/>
                        <mxPoint x="452.5" y="390" as="targetPoint"/>
                    </mxGeometry>
                </mxCell>
            </root>
        </mxGraphModel>
    </diagram>
</mxfile>